<?xml version="1.0" standalone="no"?><!-- Generator: Gravit.io --><svg xmlns="http://www.w3.org/2000/svg" xmlns:xlink="http://www.w3.org/1999/xlink" style="isolation:isolate" viewBox="0 0 300 200" width="300" height="200"><g><path d=" M 154.9 79.4 L 169.2 78.5 C 169.5 80.8 170.1 82.5 171.1 83.8 C 172.6 85.7 174.8 86.7 177.7 86.7 C 179.8 86.7 181.5 86.2 182.6 85.2 C 183.7 84.4 184.4 83.1 184.4 81.7 C 184.4 80.4 183.8 79.2 182.7 78.3 C 181.6 77.4 179.1 76.4 175.1 75.5 C 168.5 74.1 163.8 72.1 161 69.6 C 158.2 67.3 156.7 63.9 156.8 60.2 C 156.8 57.7 157.5 55.2 159 53.2 C 160.6 50.8 162.8 49 165.5 48 C 168.3 46.7 172.4 46.1 177.4 46.1 C 183.6 46.1 188.3 47.2 191.6 49.5 C 194.8 51.8 196.8 55.5 197.4 60.5 L 183.3 61.4 C 182.9 59.2 182.1 57.6 180.9 56.6 C 179.6 55.6 178 55.1 175.9 55.1 C 174.1 55.1 172.8 55.4 172 56.2 C 171.2 56.8 170.6 57.8 170.7 58.9 C 170.7 59.7 171.1 60.4 171.8 60.9 C 172.5 61.6 174.1 62.2 176.8 62.7 C 183.4 64.1 188 65.5 190.9 67 C 193.8 68.5 195.9 70.3 197.1 72.4 C 198.4 74.5 199.1 77 199 79.6 C 199 82.6 198.1 85.7 196.4 88.2 C 194.6 90.9 192.1 92.9 189.2 94.2 C 186.1 95.5 182.2 96.3 177.5 96.3 C 169.3 96.3 163.6 94.7 160.4 91.5 C 157.2 88.3 155.3 84.3 154.9 79.4 Z  M 3.4 95.4 L 3.4 46.9 L 28.4 46.9 C 33 46.9 36.6 47.3 39.1 48.1 C 41.5 48.9 43.6 50.5 45 52.6 C 46.6 54.9 47.3 57.6 47.3 60.4 C 47.4 65.2 45 69.8 40.8 72.2 C 39.2 73.1 37.4 73.7 35.5 74.1 C 36.9 74.4 38.3 75.1 39.5 75.9 C 40.4 76.6 41.1 77.5 41.8 78.4 C 42.7 79.3 43.4 80.4 44 81.4 L 51.2 95.5 L 34.2 95.5 L 26.2 80.6 C 25.1 78.7 24.3 77.4 23.4 76.8 C 22.4 76.1 21.1 75.7 19.8 75.7 L 18.5 75.7 L 18.5 95.4 L 3.4 95.4 L 3.4 95.4 Z  M 18.5 66.6 L 24.8 66.6 C 26.2 66.5 27.5 66.2 28.8 65.9 C 29.7 65.8 30.6 65.2 31.2 64.4 C 32.7 62.4 32.5 59.7 30.7 58 C 29.7 57.2 27.8 56.7 25.1 56.7 L 18.5 56.7 L 18.5 66.6 Z  M 0 137 L 14.3 136.1 C 14.6 138.4 15.2 140.2 16.2 141.4 C 17.7 143.4 19.9 144.4 22.8 144.4 C 24.9 144.4 26.6 143.9 27.7 142.9 C 28.8 142 29.5 140.8 29.5 139.4 C 29.5 138.1 28.9 136.8 27.8 136 C 26.8 135.1 24.2 134.1 20.1 133.2 C 13.6 131.7 8.8 129.8 6.1 127.3 C 3.3 125 1.7 121.5 1.8 117.9 C 1.8 115.4 2.6 112.9 4 110.9 C 5.6 108.5 7.9 106.7 10.5 105.6 C 13.4 104.4 17.4 103.7 22.5 103.7 C 28.7 103.7 33.4 104.9 36.6 107.2 C 39.9 109.6 41.8 113.2 42.4 118.2 L 28.3 119 C 27.9 116.9 27.1 115.3 25.9 114.3 C 24.7 113.2 23 112.8 20.9 112.8 C 19.2 112.8 17.9 113.2 17 113.9 C 16.1 114.6 15.6 115.6 15.7 116.7 C 15.7 117.5 16.1 118.2 16.8 118.7 C 17.5 119.4 19.2 120 21.8 120.5 C 28.4 121.9 33 123.3 35.9 124.8 C 38.8 126.3 40.9 128.1 42.1 130.2 C 43.4 132.3 44.1 134.8 44.1 137.3 C 44.1 140.4 43.1 143.4 41.5 145.9 C 39.7 148.6 37.2 150.6 34.2 151.9 C 31.2 153.2 27.2 153.9 22.6 153.9 C 14.3 153.9 8.6 152.4 5.4 149.2 C 2.2 145.9 0.4 141.9 0 137 L 0 137 Z " fill="rgb(255,255,255)"/><path d=" M 72.2 133.2 L 85.3 137.2 C 84.6 140.5 83.1 143.6 81.1 146.4 C 79.3 148.8 76.8 150.7 74.1 152 C 71.3 153.2 67.7 153.9 63.3 153.9 C 58.1 153.9 53.7 153.1 50.4 151.6 C 47.1 150.1 44.2 147.4 41.7 143.5 C 39.3 139.7 38.1 134.7 38.1 128.7 C 38.1 120.7 40.2 114.5 44.5 110.2 C 48.8 105.9 54.8 103.7 62.6 103.7 C 68.8 103.7 73.5 105 77.1 107.4 C 80.5 109.9 83.1 113.7 84.9 118.8 L 71.6 121.8 C 71.3 120.6 70.8 119.5 70.2 118.5 C 69.4 117.4 68.3 116.5 67.1 115.8 C 65.8 115.2 64.4 114.9 63 114.9 C 59.6 114.9 57 116.3 55.2 119 C 53.8 121.1 53.1 124.3 53.1 128.6 C 53.1 134 53.9 137.7 55.6 139.7 C 57.2 141.7 59.5 142.7 62.5 142.7 C 65.3 142.7 67.5 141.8 69 140.3 C 70.4 138.6 71.5 136.3 72.2 133.2 Z  M 102.8 104.6 L 117.8 104.6 L 117.8 121.5 L 134.2 121.5 L 134.2 104.6 L 149.3 104.6 L 149.3 153.1 L 134.2 153.1 L 134.2 133.4 L 117.8 133.4 L 117.8 153.1 L 102.8 153.1 L 102.8 104.6 L 102.8 104.6 Z " fill="rgb(255,255,255)"/><path d=" M 147.2 128.8 C 147.2 120.9 149.5 114.7 153.9 110.3 C 158.2 105.9 164.4 103.7 172.3 103.7 C 180.4 103.7 186.6 105.9 191 110.2 C 195.4 114.5 197.5 120.6 197.5 128.4 C 197.5 134.1 196.6 138.7 194.7 142.4 C 192.8 146 189.9 148.9 186.4 150.9 C 182.8 152.9 178.3 153.9 172.9 153.9 C 167.4 153.9 162.9 153 159.3 151.3 C 155.6 149.4 152.6 146.6 150.6 143 C 148.4 139.2 147.2 134.5 147.2 128.8 Z  M 162.2 128.9 C 162.2 133.8 163.1 137.3 164.9 139.5 C 166.7 141.6 169.2 142.7 172.4 142.7 C 175.6 142.7 178.1 141.6 179.8 139.5 C 181.6 137.4 182.5 133.6 182.5 128.2 C 182.5 123.7 181.6 120.3 179.7 118.2 C 177.9 116.1 175.4 115.1 172.3 115.1 C 169.5 115 166.8 116.2 165 118.3 C 163.1 120.4 162.2 123.9 162.2 128.9 L 162.2 128.9 Z  M 212.9 128.8 C 212.9 120.9 215.1 114.7 219.5 110.3 C 223.9 105.9 230.1 103.7 238 103.7 C 246.1 103.7 252.3 105.9 256.6 110.2 C 261 114.5 263.2 120.6 263.2 128.4 C 263.2 134.1 262.2 138.7 260.3 142.4 C 258.5 146 255.6 148.9 252.1 150.9 C 248.4 152.9 243.9 153.9 238.6 153.9 C 233.1 153.9 228.6 153 225 151.3 C 221.3 149.4 218.3 146.6 216.3 143 C 214 139.2 212.9 134.5 212.9 128.8 L 212.9 128.8 Z  M 227.9 128.9 C 227.9 133.8 228.8 137.3 230.6 139.5 C 232.4 141.6 234.9 142.7 238 142.7 C 241.2 142.7 243.7 141.6 245.5 139.5 C 247.3 137.4 248.2 133.6 248.2 128.2 C 248.2 123.7 247.3 120.3 245.4 118.2 C 243.6 116.1 241.1 115.1 237.9 115.1 C 235.1 115 232.4 116.2 230.6 118.3 C 228.8 120.4 227.9 123.9 227.9 128.9 L 227.9 128.9 Z " fill="rgb(255,255,255)"/><path d=" M 261.6 104.6 L 276.6 104.6 L 276.6 141.1 L 300 141.1 L 300 153.1 L 261.6 153.1 L 261.6 104.6 L 261.6 104.6 Z " fill="rgb(255,255,255)"/><ellipse vector-effect="non-scaling-stroke" cx="0" cy="0" rx="1" ry="1" transform="matrix(27.3,-20.6,16.9,22.5,228.2,79.3)" fill="rgb(255,255,255)"/><clipPath id="_clipPath_W13A6AschzdfxC8Iv7osrT41UImFwweb"><ellipse vector-effect="non-scaling-stroke" cx="0" cy="0" rx="1" ry="1" transform="matrix(34.2,0,0,28.1,228.2,79.3)" fill="rgb(255,255,255)"/></clipPath><g clip-path="url(#_clipPath_W13A6AschzdfxC8Iv7osrT41UImFwweb)"><g><path d=" M 162.4 73.2 L 240.4 14.4 L 294.3 86 L 216.4 144.7 L 162.4 73.2 Z " fill="rgb(255,255,255)"/><g><clipPath id="_clipPath_PaohhWUy6zJPabZaxbR5NZWrN1oInIyE"><path d=" M 179.6 34.8 L 277.2 34.8 L 277.2 124.4 L 179.6 124.4 L 179.6 34.8 Z " fill="rgb(255,255,255)"/></clipPath><g clip-path="url(#_clipPath_PaohhWUy6zJPabZaxbR5NZWrN1oInIyE)"><g><ellipse vector-effect="non-scaling-stroke" cx="0" cy="0" rx="1" ry="1" transform="matrix(27.3,-20.6,16.9,22.5,228.2,79.3)" fill="rgb(255,255,255)"/><clipPath id="_clipPath_4RitG8kSJ2z9AoJoatuRUNZFEqiLoERp"><ellipse vector-effect="non-scaling-stroke" cx="0" cy="0" rx="1" ry="1" transform="matrix(34.2,0,0,28.1,228.2,79.3)" fill="rgb(255,255,255)"/></clipPath><g clip-path="url(#_clipPath_4RitG8kSJ2z9AoJoatuRUNZFEqiLoERp)"><g><path d=" M 184.1 77.9 L 238.7 36.8 L 272.6 81.8 L 218 122.9 L 184.1 77.9 Z " fill="rgb(255,255,255)"/><clipPath id="_clipPath_5ojnKpisHtekR3YRpTQFopPAdD3hPQvO"><path d=" M 194.2 51.7 L 262.5 51.7 L 262.5 108 L 194.2 108 L 194.2 51.7 Z " fill="rgb(255,255,255)"/></clipPath><g clip-path="url(#_clipPath_5ojnKpisHtekR3YRpTQFopPAdD3hPQvO)"><g><ellipse vector-effect="non-scaling-stroke" cx="0" cy="0" rx="1" ry="1" transform="matrix(27.3,-20.6,16.9,22.5,228.2,79.3)" fill="rgb(255,255,255)" stroke-width="2.2" stroke="rgb(0,0,0)" stroke-linejoin="miter" stroke-linecap="butt" stroke-miterlimit="10"/></g></g><clipPath id="_clipPath_QGLH7jzW8al0iwCY0WWfej3CgDuHwejW"><path d=" M 184.1 77.9 L 238.7 36.8 L 272.6 81.8 L 218 122.9 L 184.1 77.9 Z " fill="rgb(255,255,255)"/></clipPath><g clip-path="url(#_clipPath_QGLH7jzW8al0iwCY0WWfej3CgDuHwejW)"><path d=" M 184.1 77.9 L 238.7 36.8 L 272.6 81.8 L 218 122.9 L 184.1 77.9 Z " fill="none" vector-effect="non-scaling-stroke" stroke-width="2.2" stroke="rgb(0,0,0)" stroke-linejoin="miter" stroke-linecap="butt" stroke-miterlimit="10"/></g><ellipse vector-effect="non-scaling-stroke" cx="0" cy="0" rx="1" ry="1" transform="matrix(27.3,-20.6,16.9,22.5,228.2,79.3)" fill="none" stroke-width="2.2" stroke="rgb(0,0,0)" stroke-linejoin="miter" stroke-linecap="butt" stroke-miterlimit="10"/><path d=" M 184.1 77.9 L 238.7 36.8 L 272.6 81.8 L 218 122.9 L 184.1 77.9 Z " fill="rgb(255,255,255)"/><clipPath id="_clipPath_OW9alGNpEbVH6s7ODyawdNN1ufwvomoD"><path d=" M 194.2 51.7 L 262.5 51.7 L 262.5 108 L 194.2 108 L 194.2 51.7 Z " fill="rgb(255,255,255)"/></clipPath><g clip-path="url(#_clipPath_OW9alGNpEbVH6s7ODyawdNN1ufwvomoD)"><g><ellipse vector-effect="non-scaling-stroke" cx="0" cy="0" rx="1" ry="1" transform="matrix(27.3,-20.6,16.9,22.5,228.2,79.3)" fill="rgb(255,255,255)" stroke-width="2.2" stroke="rgb(255,255,255)" stroke-linejoin="miter" stroke-linecap="butt" stroke-miterlimit="10"/></g></g><clipPath id="_clipPath_MSmTLvyFGSegVAwPdy4YnWjG0gc9xt0B"><path d=" M 184.1 77.9 L 238.7 36.8 L 272.6 81.8 L 218 122.9 L 184.1 77.9 Z " fill="rgb(255,255,255)"/></clipPath><g clip-path="url(#_clipPath_MSmTLvyFGSegVAwPdy4YnWjG0gc9xt0B)"><path d=" M 184.1 77.9 L 238.7 36.8 L 272.6 81.8 L 218 122.9 L 184.1 77.9 Z " fill="rgb(255,255,255)" vector-effect="non-scaling-stroke" stroke-width="2.2" stroke="rgb(255,255,255)" stroke-linejoin="miter" stroke-linecap="butt" stroke-miterlimit="10"/></g><path d=" M 162.4 73.2 L 240.4 14.4 L 294.3 86 L 216.4 144.7 L 162.4 73.2 Z " fill="none" vector-effect="non-scaling-stroke" stroke-width="2.2" stroke="rgb(0,0,0)" stroke-linejoin="miter" stroke-linecap="butt" stroke-miterlimit="10"/></g></g><ellipse vector-effect="non-scaling-stroke" cx="0" cy="0" rx="1" ry="1" transform="matrix(27.3,-20.6,16.9,22.5,228.2,79.3)" fill="rgb(255,255,255)" stroke-width="2.2" stroke="rgb(255,255,255)" stroke-linejoin="miter" stroke-linecap="butt" stroke-miterlimit="10"/><path d=" M 213 75.7 L 218.4 71.9 L 225.1 81.4 C 226.2 83 227.1 84.6 227.7 86.4 C 228.1 87.7 228 89.2 227.4 90.5 C 226.7 92.1 225.6 93.5 224.1 94.5 C 222.3 95.7 220.8 96.4 219.5 96.6 C 218.2 96.9 216.9 96.6 215.7 96.1 C 214.4 95.4 213.3 94.5 212.4 93.3 L 217.1 89 C 217.5 89.6 217.9 90.1 218.5 90.6 C 218.9 90.8 219.3 91 219.8 91 C 220.2 91 220.5 90.8 220.8 90.6 C 221.4 90.3 221.7 89.6 221.7 89 C 221.5 88.1 221.1 87.1 220.5 86.4 L 213 75.7 L 213 75.7 Z  M 229.2 81.8 L 234.2 77.9 C 234.7 78.5 235.4 79 236.2 79.3 C 237.3 79.6 238.4 79.4 239.3 78.7 C 240 78.2 240.5 77.6 240.7 76.9 C 241.1 75.9 240.5 74.8 239.5 74.5 C 239.4 74.4 239.2 74.4 239.1 74.4 C 238.4 74.3 237.3 74.6 235.6 75.3 C 232.8 76.4 230.6 76.9 229 76.7 C 227.4 76.6 226 75.7 225.1 74.4 C 224.5 73.5 224.1 72.4 224.1 71.3 C 224.1 70 224.4 68.8 225.1 67.8 C 226.1 66.3 227.4 65.1 228.9 64.1 C 231.2 62.5 233.2 61.7 234.9 61.7 C 236.7 61.7 238.3 62.6 239.8 64.2 L 234.9 68.1 C 234 66.8 232.1 66.6 230.9 67.5 L 230.7 67.7 C 230.2 68 229.8 68.5 229.6 69.1 C 229.4 69.6 229.5 70 229.8 70.4 C 230 70.7 230.3 70.9 230.7 70.9 C 231.1 71 231.9 70.7 233 70.3 C 235.7 69.1 237.8 68.5 239.2 68.3 C 240.4 68 241.6 68.1 242.7 68.6 C 243.8 69.1 244.6 69.8 245.2 70.7 C 246 71.8 246.4 73.1 246.5 74.5 C 246.5 75.9 246.2 77.3 245.4 78.5 C 244.4 79.9 243.2 81.2 241.7 82.1 C 238.7 84.2 236.3 85.1 234.3 84.8 C 232.2 84.4 230.5 83.3 229.2 81.8 L 229.2 81.8 Z " fill="rgb(0,0,0)"/></g></g></g></g></g></g></svg>